# Generated by tools/generate_assets.py
mtllib ../materials.mtl
o ac_drain
v 0.01800 0.00000 0.00000
v 0.01273 0.01273 0.00000
v 0.00000 0.01800 0.00000
v -0.01273 0.01273 0.00000
v -0.01800 0.00000 0.00000
v -0.01273 -0.01273 0.00000
v -0.00000 -0.01800 0.00000
v 0.01273 -0.01273 0.00000
v 0.01800 0.00000 1.10000
v 0.01273 0.01273 1.10000
v 0.00000 0.01800 1.10000
v -0.01273 0.01273 1.10000
v -0.01800 0.00000 1.10000
v -0.01273 -0.01273 1.10000
v -0.00000 -0.01800 1.10000
v 0.01273 -0.01273 1.10000
v -0.02000 -0.02000 0.02000
v 0.02000 -0.02000 0.02000
v 0.02000 0.22000 0.02000
v -0.02000 0.22000 0.02000
v -0.02000 -0.02000 0.06000
v 0.02000 -0.02000 0.06000
v 0.02000 0.22000 0.06000
v -0.02000 0.22000 0.06000
usemtl white
f 8 7 6 5 4 3 2 1
f 9 10 11 12 13 14 15 16
f 1 2 10 9
f 2 3 11 10
f 3 4 12 11
f 4 5 13 12
f 5 6 14 13
f 6 7 15 14
f 7 8 16 15
f 8 1 9 16
f 17 20 19 18
f 21 22 23 24
f 17 18 22 21
f 18 19 23 22
f 19 20 24 23
f 20 17 21 24
