# Generated by tools/generate_assets.py
mtllib ../materials.mtl
o cctv_camera
v -0.12000 -0.21000 0.00000
v 0.12000 -0.21000 0.00000
v 0.12000 0.21000 0.00000
v -0.12000 0.21000 0.00000
v -0.12000 -0.21000 0.24000
v 0.12000 -0.21000 0.24000
v 0.12000 0.21000 0.24000
v -0.12000 0.21000 0.24000
v 0.08500 0.24000 0.03000
v 0.07361 0.28250 0.03000
v 0.04250 0.31361 0.03000
v 0.00000 0.32500 0.03000
v -0.04250 0.31361 0.03000
v -0.07361 0.28250 0.03000
v -0.08500 0.24000 0.03000
v -0.07361 0.19750 0.03000
v -0.04250 0.16639 0.03000
v -0.00000 0.15500 0.03000
v 0.04250 0.16639 0.03000
v 0.07361 0.19750 0.03000
v 0.08500 0.24000 0.21000
v 0.07361 0.28250 0.21000
v 0.04250 0.31361 0.21000
v 0.00000 0.32500 0.21000
v -0.04250 0.31361 0.21000
v -0.07361 0.28250 0.21000
v -0.08500 0.24000 0.21000
v -0.07361 0.19750 0.21000
v -0.04250 0.16639 0.21000
v -0.00000 0.15500 0.21000
v 0.04250 0.16639 0.21000
v 0.07361 0.19750 0.21000
v -0.03000 -0.03000 -0.24000
v 0.03000 -0.03000 -0.24000
v 0.03000 0.03000 -0.24000
v -0.03000 0.03000 -0.24000
v -0.03000 -0.03000 0.00000
v 0.03000 -0.03000 0.00000
v 0.03000 0.03000 0.00000
v -0.03000 0.03000 0.00000
usemtl painted_black
f 1 4 3 2
f 5 6 7 8
f 1 2 6 5
f 2 3 7 6
f 3 4 8 7
f 4 1 5 8
usemtl glass
f 20 19 18 17 16 15 14 13 12 11 10 9
f 21 22 23 24 25 26 27 28 29 30 31 32
f 9 10 22 21
f 10 11 23 22
f 11 12 24 23
f 12 13 25 24
f 13 14 26 25
f 14 15 27 26
f 15 16 28 27
f 16 17 29 28
f 17 18 30 29
f 18 19 31 30
f 19 20 32 31
f 20 9 21 32
usemtl metal
f 33 36 35 34
f 37 38 39 40
f 33 34 38 37
f 34 35 39 38
f 35 36 40 39
f 36 33 37 40
