# Generated by tools/generate_assets.py
mtllib ../materials.mtl
o exposed_pipe
v 0.03500 0.00000 0.00000
v 0.02832 0.02057 0.00000
v 0.01082 0.03329 0.00000
v -0.01082 0.03329 0.00000
v -0.02832 0.02057 0.00000
v -0.03500 0.00000 0.00000
v -0.02832 -0.02057 0.00000
v -0.01082 -0.03329 0.00000
v 0.01082 -0.03329 0.00000
v 0.02832 -0.02057 0.00000
v 0.03500 0.00000 3.00000
v 0.02832 0.02057 3.00000
v 0.01082 0.03329 3.00000
v -0.01082 0.03329 3.00000
v -0.02832 0.02057 3.00000
v -0.03500 0.00000 3.00000
v -0.02832 -0.02057 3.00000
v -0.01082 -0.03329 3.00000
v 0.01082 -0.03329 3.00000
v 0.02832 -0.02057 3.00000
usemtl galvanized
f 10 9 8 7 6 5 4 3 2 1
f 11 12 13 14 15 16 17 18 19 20
f 1 2 12 11
f 2 3 13 12
f 3 4 14 13
f 4 5 15 14
f 5 6 16 15
f 6 7 17 16
f 7 8 18 17
f 8 9 19 18
f 9 10 20 19
f 10 1 11 20
