# Generated by tools/generate_assets.py
mtllib ../materials.mtl
o curb_corner_90
v -0.70000 -0.15000 0.00000
v 0.00000 -0.15000 0.00000
v 0.00000 0.15000 0.00000
v -0.70000 0.15000 0.00000
v -0.70000 -0.15000 0.25000
v 0.00000 -0.15000 0.25000
v 0.00000 0.15000 0.25000
v -0.70000 0.15000 0.25000
v -0.15000 0.00000 0.00000
v 0.15000 0.00000 0.00000
v 0.15000 0.70000 0.00000
v -0.15000 0.70000 0.00000
v -0.15000 0.00000 0.25000
v 0.15000 0.00000 0.25000
v 0.15000 0.70000 0.25000
v -0.15000 0.70000 0.25000
usemtl concrete
f 1 4 3 2
f 5 6 7 8
f 1 2 6 5
f 2 3 7 6
f 3 4 8 7
f 4 1 5 8
f 9 12 11 10
f 13 14 15 16
f 9 10 14 13
f 10 11 15 14
f 11 12 16 15
f 12 9 13 16
