# Generated by tools/generate_assets.py
mtllib ../materials.mtl
o manhole_cover
v 0.34000 0.00000 0.00000
v 0.32336 0.10507 0.00000
v 0.27507 0.19985 0.00000
v 0.19985 0.27507 0.00000
v 0.10507 0.32336 0.00000
v 0.00000 0.34000 0.00000
v -0.10507 0.32336 0.00000
v -0.19985 0.27507 0.00000
v -0.27507 0.19985 0.00000
v -0.32336 0.10507 0.00000
v -0.34000 0.00000 0.00000
v -0.32336 -0.10507 0.00000
v -0.27507 -0.19985 0.00000
v -0.19985 -0.27507 0.00000
v -0.10507 -0.32336 0.00000
v -0.00000 -0.34000 0.00000
v 0.10507 -0.32336 0.00000
v 0.19985 -0.27507 0.00000
v 0.27507 -0.19985 0.00000
v 0.32336 -0.10507 0.00000
v 0.34000 0.00000 0.05000
v 0.32336 0.10507 0.05000
v 0.27507 0.19985 0.05000
v 0.19985 0.27507 0.05000
v 0.10507 0.32336 0.05000
v 0.00000 0.34000 0.05000
v -0.10507 0.32336 0.05000
v -0.19985 0.27507 0.05000
v -0.27507 0.19985 0.05000
v -0.32336 0.10507 0.05000
v -0.34000 0.00000 0.05000
v -0.32336 -0.10507 0.05000
v -0.27507 -0.19985 0.05000
v -0.19985 -0.27507 0.05000
v -0.10507 -0.32336 0.05000
v -0.00000 -0.34000 0.05000
v 0.10507 -0.32336 0.05000
v 0.19985 -0.27507 0.05000
v 0.27507 -0.19985 0.05000
v 0.32336 -0.10507 0.05000
v 0.24000 0.00000 0.04900
v 0.22825 0.07416 0.04900
v 0.19416 0.14107 0.04900
v 0.14107 0.19416 0.04900
v 0.07416 0.22825 0.04900
v 0.00000 0.24000 0.04900
v -0.07416 0.22825 0.04900
v -0.14107 0.19416 0.04900
v -0.19416 0.14107 0.04900
v -0.22825 0.07416 0.04900
v -0.24000 0.00000 0.04900
v -0.22825 -0.07416 0.04900
v -0.19416 -0.14107 0.04900
v -0.14107 -0.19416 0.04900
v -0.07416 -0.22825 0.04900
v -0.00000 -0.24000 0.04900
v 0.07416 -0.22825 0.04900
v 0.14107 -0.19416 0.04900
v 0.19416 -0.14107 0.04900
v 0.22825 -0.07416 0.04900
v 0.24000 0.00000 0.06100
v 0.22825 0.07416 0.06100
v 0.19416 0.14107 0.06100
v 0.14107 0.19416 0.06100
v 0.07416 0.22825 0.06100
v 0.00000 0.24000 0.06100
v -0.07416 0.22825 0.06100
v -0.14107 0.19416 0.06100
v -0.19416 0.14107 0.06100
v -0.22825 0.07416 0.06100
v -0.24000 0.00000 0.06100
v -0.22825 -0.07416 0.06100
v -0.19416 -0.14107 0.06100
v -0.14107 -0.19416 0.06100
v -0.07416 -0.22825 0.06100
v -0.00000 -0.24000 0.06100
v 0.07416 -0.22825 0.06100
v 0.14107 -0.19416 0.06100
v 0.19416 -0.14107 0.06100
v 0.22825 -0.07416 0.06100
usemtl metal
f 20 19 18 17 16 15 14 13 12 11 10 9 8 7 6 5 4 3 2 1
f 21 22 23 24 25 26 27 28 29 30 31 32 33 34 35 36 37 38 39 40
f 1 2 22 21
f 2 3 23 22
f 3 4 24 23
f 4 5 25 24
f 5 6 26 25
f 6 7 27 26
f 7 8 28 27
f 8 9 29 28
f 9 10 30 29
f 10 11 31 30
f 11 12 32 31
f 12 13 33 32
f 13 14 34 33
f 14 15 35 34
f 15 16 36 35
f 16 17 37 36
f 17 18 38 37
f 18 19 39 38
f 19 20 40 39
f 20 1 21 40
usemtl dark_concrete
f 60 59 58 57 56 55 54 53 52 51 50 49 48 47 46 45 44 43 42 41
f 61 62 63 64 65 66 67 68 69 70 71 72 73 74 75 76 77 78 79 80
f 41 42 62 61
f 42 43 63 62
f 43 44 64 63
f 44 45 65 64
f 45 46 66 65
f 46 47 67 66
f 47 48 68 67
f 48 49 69 68
f 49 50 70 69
f 50 51 71 70
f 51 52 72 71
f 52 53 73 72
f 53 54 74 73
f 54 55 75 74
f 55 56 76 75
f 56 57 77 76
f 57 58 78 77
f 58 59 79 78
f 59 60 80 79
f 60 41 61 80
