# Generated by tools/generate_assets.py
mtllib ../materials.mtl
o compact_car
v -0.86000 -1.87500 0.17000
v 0.86000 -1.87500 0.17000
v 0.86000 1.87500 0.17000
v -0.86000 1.87500 0.17000
v -0.86000 -1.87500 0.79000
v 0.86000 -1.87500 0.79000
v 0.86000 1.87500 0.79000
v -0.86000 1.87500 0.79000
v -0.72500 -1.02500 0.70500
v 0.72500 -1.02500 0.70500
v 0.72500 0.72500 0.70500
v -0.72500 0.72500 0.70500
v -0.72500 -1.02500 1.25500
v 0.72500 -1.02500 1.25500
v 0.72500 0.72500 1.25500
v -0.72500 0.72500 1.25500
v -0.47000 -1.18000 0.19000
v -0.50349 -1.05500 0.19000
v -0.59500 -0.96349 0.19000
v -0.72000 -0.93000 0.19000
v -0.84500 -0.96349 0.19000
v -0.93651 -1.05500 0.19000
v -0.97000 -1.18000 0.19000
v -0.93651 -1.30500 0.19000
v -0.84500 -1.39651 0.19000
v -0.72000 -1.43000 0.19000
v -0.59500 -1.39651 0.19000
v -0.50349 -1.30500 0.19000
v -0.47000 -1.18000 0.37000
v -0.50349 -1.05500 0.37000
v -0.59500 -0.96349 0.37000
v -0.72000 -0.93000 0.37000
v -0.84500 -0.96349 0.37000
v -0.93651 -1.05500 0.37000
v -0.97000 -1.18000 0.37000
v -0.93651 -1.30500 0.37000
v -0.84500 -1.39651 0.37000
v -0.72000 -1.43000 0.37000
v -0.59500 -1.39651 0.37000
v -0.50349 -1.30500 0.37000
v -0.47000 1.18000 0.19000
v -0.50349 1.30500 0.19000
v -0.59500 1.39651 0.19000
v -0.72000 1.43000 0.19000
v -0.84500 1.39651 0.19000
v -0.93651 1.30500 0.19000
v -0.97000 1.18000 0.19000
v -0.93651 1.05500 0.19000
v -0.84500 0.96349 0.19000
v -0.72000 0.93000 0.19000
v -0.59500 0.96349 0.19000
v -0.50349 1.05500 0.19000
v -0.47000 1.18000 0.37000
v -0.50349 1.30500 0.37000
v -0.59500 1.39651 0.37000
v -0.72000 1.43000 0.37000
v -0.84500 1.39651 0.37000
v -0.93651 1.30500 0.37000
v -0.97000 1.18000 0.37000
v -0.93651 1.05500 0.37000
v -0.84500 0.96349 0.37000
v -0.72000 0.93000 0.37000
v -0.59500 0.96349 0.37000
v -0.50349 1.05500 0.37000
v 0.97000 -1.18000 0.19000
v 0.93651 -1.05500 0.19000
v 0.84500 -0.96349 0.19000
v 0.72000 -0.93000 0.19000
v 0.59500 -0.96349 0.19000
v 0.50349 -1.05500 0.19000
v 0.47000 -1.18000 0.19000
v 0.50349 -1.30500 0.19000
v 0.59500 -1.39651 0.19000
v 0.72000 -1.43000 0.19000
v 0.84500 -1.39651 0.19000
v 0.93651 -1.30500 0.19000
v 0.97000 -1.18000 0.37000
v 0.93651 -1.05500 0.37000
v 0.84500 -0.96349 0.37000
v 0.72000 -0.93000 0.37000
v 0.59500 -0.96349 0.37000
v 0.50349 -1.05500 0.37000
v 0.47000 -1.18000 0.37000
v 0.50349 -1.30500 0.37000
v 0.59500 -1.39651 0.37000
v 0.72000 -1.43000 0.37000
v 0.84500 -1.39651 0.37000
v 0.93651 -1.30500 0.37000
v 0.97000 1.18000 0.19000
v 0.93651 1.30500 0.19000
v 0.84500 1.39651 0.19000
v 0.72000 1.43000 0.19000
v 0.59500 1.39651 0.19000
v 0.50349 1.30500 0.19000
v 0.47000 1.18000 0.19000
v 0.50349 1.05500 0.19000
v 0.59500 0.96349 0.19000
v 0.72000 0.93000 0.19000
v 0.84500 0.96349 0.19000
v 0.93651 1.05500 0.19000
v 0.97000 1.18000 0.37000
v 0.93651 1.30500 0.37000
v 0.84500 1.39651 0.37000
v 0.72000 1.43000 0.37000
v 0.59500 1.39651 0.37000
v 0.50349 1.30500 0.37000
v 0.47000 1.18000 0.37000
v 0.50349 1.05500 0.37000
v 0.59500 0.96349 0.37000
v 0.72000 0.93000 0.37000
v 0.84500 0.96349 0.37000
v 0.93651 1.05500 0.37000
usemtl white
f 1 4 3 2
f 5 6 7 8
f 1 2 6 5
f 2 3 7 6
f 3 4 8 7
f 4 1 5 8
usemtl glass
f 9 12 11 10
f 13 14 15 16
f 9 10 14 13
f 10 11 15 14
f 11 12 16 15
f 12 9 13 16
usemtl painted_black
f 28 27 26 25 24 23 22 21 20 19 18 17
f 29 30 31 32 33 34 35 36 37 38 39 40
f 17 18 30 29
f 18 19 31 30
f 19 20 32 31
f 20 21 33 32
f 21 22 34 33
f 22 23 35 34
f 23 24 36 35
f 24 25 37 36
f 25 26 38 37
f 26 27 39 38
f 27 28 40 39
f 28 17 29 40
f 52 51 50 49 48 47 46 45 44 43 42 41
f 53 54 55 56 57 58 59 60 61 62 63 64
f 41 42 54 53
f 42 43 55 54
f 43 44 56 55
f 44 45 57 56
f 45 46 58 57
f 46 47 59 58
f 47 48 60 59
f 48 49 61 60
f 49 50 62 61
f 50 51 63 62
f 51 52 64 63
f 52 41 53 64
f 76 75 74 73 72 71 70 69 68 67 66 65
f 77 78 79 80 81 82 83 84 85 86 87 88
f 65 66 78 77
f 66 67 79 78
f 67 68 80 79
f 68 69 81 80
f 69 70 82 81
f 70 71 83 82
f 71 72 84 83
f 72 73 85 84
f 73 74 86 85
f 74 75 87 86
f 75 76 88 87
f 76 65 77 88
f 100 99 98 97 96 95 94 93 92 91 90 89
f 101 102 103 104 105 106 107 108 109 110 111 112
f 89 90 102 101
f 90 91 103 102
f 91 92 104 103
f 92 93 105 104
f 93 94 106 105
f 94 95 107 106
f 95 96 108 107
f 96 97 109 108
f 97 98 110 109
f 98 99 111 110
f 99 100 112 111
f 100 89 101 112
