# Generated by tools/generate_assets.py
mtllib ../materials.mtl
o pedestrian
v 0.13000 0.00000 1.42000
v 0.11258 0.06500 1.42000
v 0.06500 0.11258 1.42000
v 0.00000 0.13000 1.42000
v -0.06500 0.11258 1.42000
v -0.11258 0.06500 1.42000
v -0.13000 0.00000 1.42000
v -0.11258 -0.06500 1.42000
v -0.06500 -0.11258 1.42000
v -0.00000 -0.13000 1.42000
v 0.06500 -0.11258 1.42000
v 0.11258 -0.06500 1.42000
v 0.13000 0.00000 1.68000
v 0.11258 0.06500 1.68000
v 0.06500 0.11258 1.68000
v 0.00000 0.13000 1.68000
v -0.06500 0.11258 1.68000
v -0.11258 0.06500 1.68000
v -0.13000 0.00000 1.68000
v -0.11258 -0.06500 1.68000
v -0.06500 -0.11258 1.68000
v -0.00000 -0.13000 1.68000
v 0.06500 -0.11258 1.68000
v 0.11258 -0.06500 1.68000
v -0.19000 -0.12000 0.61000
v 0.19000 -0.12000 0.61000
v 0.19000 0.12000 0.61000
v -0.19000 0.12000 0.61000
v -0.19000 -0.12000 1.39000
v 0.19000 -0.12000 1.39000
v 0.19000 0.12000 1.39000
v -0.19000 0.12000 1.39000
v -0.17000 -0.07000 0.00000
v -0.05000 -0.07000 0.00000
v -0.05000 0.07000 0.00000
v -0.17000 0.07000 0.00000
v -0.17000 -0.07000 0.72000
v -0.05000 -0.07000 0.72000
v -0.05000 0.07000 0.72000
v -0.17000 0.07000 0.72000
v 0.05000 -0.07000 0.00000
v 0.17000 -0.07000 0.00000
v 0.17000 0.07000 0.00000
v 0.05000 0.07000 0.00000
v 0.05000 -0.07000 0.72000
v 0.17000 -0.07000 0.72000
v 0.17000 0.07000 0.72000
v 0.05000 0.07000 0.72000
usemtl plastic
f 12 11 10 9 8 7 6 5 4 3 2 1
f 13 14 15 16 17 18 19 20 21 22 23 24
f 1 2 14 13
f 2 3 15 14
f 3 4 16 15
f 4 5 17 16
f 5 6 18 17
f 6 7 19 18
f 7 8 20 19
f 8 9 21 20
f 9 10 22 21
f 10 11 23 22
f 11 12 24 23
f 12 1 13 24
usemtl blue
f 25 28 27 26
f 29 30 31 32
f 25 26 30 29
f 26 27 31 30
f 27 28 32 31
f 28 25 29 32
usemtl dark_concrete
f 33 36 35 34
f 37 38 39 40
f 33 34 38 37
f 34 35 39 38
f 35 36 40 39
f 36 33 37 40
f 41 44 43 42
f 45 46 47 48
f 41 42 46 45
f 42 43 47 46
f 43 44 48 47
f 44 41 45 48
