# Generated by tools/generate_assets.py
mtllib ../materials.mtl
o electrical_box
v -0.31000 -0.17500 0.00000
v 0.31000 -0.17500 0.00000
v 0.31000 0.17500 0.00000
v -0.31000 0.17500 0.00000
v -0.31000 -0.17500 1.16000
v 0.31000 -0.17500 1.16000
v 0.31000 0.17500 1.16000
v -0.31000 0.17500 1.16000
v -0.21000 -0.18850 0.63000
v 0.21000 -0.18850 0.63000
v 0.21000 -0.17350 0.63000
v -0.21000 -0.17350 0.63000
v -0.21000 -0.18850 0.81000
v 0.21000 -0.18850 0.81000
v 0.21000 -0.17350 0.81000
v -0.21000 -0.17350 0.81000
usemtl painted_green
f 1 4 3 2
f 5 6 7 8
f 1 2 6 5
f 2 3 7 6
f 3 4 8 7
f 4 1 5 8
usemtl white
f 9 12 11 10
f 13 14 15 16
f 9 10 14 13
f 10 11 15 14
f 11 12 16 15
f 12 9 13 16
