# Generated by tools/generate_assets.py
mtllib ../materials.mtl
o lamp_post
v 0.05500 0.00000 0.00000
v 0.04763 0.02750 0.00000
v 0.02750 0.04763 0.00000
v 0.00000 0.05500 0.00000
v -0.02750 0.04763 0.00000
v -0.04763 0.02750 0.00000
v -0.05500 0.00000 0.00000
v -0.04763 -0.02750 0.00000
v -0.02750 -0.04763 0.00000
v -0.00000 -0.05500 0.00000
v 0.02750 -0.04763 0.00000
v 0.04763 -0.02750 0.00000
v 0.05500 0.00000 5.20000
v 0.04763 0.02750 5.20000
v 0.02750 0.04763 5.20000
v 0.00000 0.05500 5.20000
v -0.02750 0.04763 5.20000
v -0.04763 0.02750 5.20000
v -0.05500 0.00000 5.20000
v -0.04763 -0.02750 5.20000
v -0.02750 -0.04763 5.20000
v -0.00000 -0.05500 5.20000
v 0.02750 -0.04763 5.20000
v 0.04763 -0.02750 5.20000
v 0.14000 0.00000 0.00000
v 0.12124 0.07000 0.00000
v 0.07000 0.12124 0.00000
v 0.00000 0.14000 0.00000
v -0.07000 0.12124 0.00000
v -0.12124 0.07000 0.00000
v -0.14000 0.00000 0.00000
v -0.12124 -0.07000 0.00000
v -0.07000 -0.12124 0.00000
v -0.00000 -0.14000 0.00000
v 0.07000 -0.12124 0.00000
v 0.12124 -0.07000 0.00000
v 0.14000 0.00000 0.16000
v 0.12124 0.07000 0.16000
v 0.07000 0.12124 0.16000
v 0.00000 0.14000 0.16000
v -0.07000 0.12124 0.16000
v -0.12124 0.07000 0.16000
v -0.14000 0.00000 0.16000
v -0.12124 -0.07000 0.16000
v -0.07000 -0.12124 0.16000
v -0.00000 -0.14000 0.16000
v 0.07000 -0.12124 0.16000
v 0.12124 -0.07000 0.16000
v -0.04000 -0.00500 5.08000
v 0.04000 -0.00500 5.08000
v 0.04000 0.84500 5.08000
v -0.04000 0.84500 5.08000
v -0.04000 -0.00500 5.16000
v 0.04000 -0.00500 5.16000
v 0.04000 0.84500 5.16000
v -0.04000 0.84500 5.16000
v -0.14000 0.58000 4.91500
v 0.14000 0.58000 4.91500
v 0.14000 1.00000 4.91500
v -0.14000 1.00000 4.91500
v -0.14000 0.58000 5.04500
v 0.14000 0.58000 5.04500
v 0.14000 1.00000 5.04500
v -0.14000 1.00000 5.04500
usemtl painted_black
f 12 11 10 9 8 7 6 5 4 3 2 1
f 13 14 15 16 17 18 19 20 21 22 23 24
f 1 2 14 13
f 2 3 15 14
f 3 4 16 15
f 4 5 17 16
f 5 6 18 17
f 6 7 19 18
f 7 8 20 19
f 8 9 21 20
f 9 10 22 21
f 10 11 23 22
f 11 12 24 23
f 12 1 13 24
f 36 35 34 33 32 31 30 29 28 27 26 25
f 37 38 39 40 41 42 43 44 45 46 47 48
f 25 26 38 37
f 26 27 39 38
f 27 28 40 39
f 28 29 41 40
f 29 30 42 41
f 30 31 43 42
f 31 32 44 43
f 32 33 45 44
f 33 34 46 45
f 34 35 47 46
f 35 36 48 47
f 36 25 37 48
f 49 52 51 50
f 53 54 55 56
f 49 50 54 53
f 50 51 55 54
f 51 52 56 55
f 52 49 53 56
usemtl white
f 57 60 59 58
f 61 62 63 64
f 57 58 62 61
f 58 59 63 62
f 59 60 64 63
f 60 57 61 64
