# Generated by tools/generate_assets.py
mtllib ../materials.mtl
o litter_bin
v 0.25000 0.00000 0.00000
v 0.22524 0.10847 0.00000
v 0.15587 0.19546 0.00000
v 0.05563 0.24373 0.00000
v -0.05563 0.24373 0.00000
v -0.15587 0.19546 0.00000
v -0.22524 0.10847 0.00000
v -0.25000 0.00000 0.00000
v -0.22524 -0.10847 0.00000
v -0.15587 -0.19546 0.00000
v -0.05563 -0.24373 0.00000
v 0.05563 -0.24373 0.00000
v 0.15587 -0.19546 0.00000
v 0.22524 -0.10847 0.00000
v 0.25000 0.00000 0.92000
v 0.22524 0.10847 0.92000
v 0.15587 0.19546 0.92000
v 0.05563 0.24373 0.92000
v -0.05563 0.24373 0.92000
v -0.15587 0.19546 0.92000
v -0.22524 0.10847 0.92000
v -0.25000 0.00000 0.92000
v -0.22524 -0.10847 0.92000
v -0.15587 -0.19546 0.92000
v -0.05563 -0.24373 0.92000
v 0.05563 -0.24373 0.92000
v 0.15587 -0.19546 0.92000
v 0.22524 -0.10847 0.92000
v 0.27000 0.00000 0.88000
v 0.24326 0.11715 0.88000
v 0.16834 0.21109 0.88000
v 0.06008 0.26323 0.88000
v -0.06008 0.26323 0.88000
v -0.16834 0.21109 0.88000
v -0.24326 0.11715 0.88000
v -0.27000 0.00000 0.88000
v -0.24326 -0.11715 0.88000
v -0.16834 -0.21109 0.88000
v -0.06008 -0.26323 0.88000
v 0.06008 -0.26323 0.88000
v 0.16834 -0.21109 0.88000
v 0.24326 -0.11715 0.88000
v 0.27000 0.00000 0.96000
v 0.24326 0.11715 0.96000
v 0.16834 0.21109 0.96000
v 0.06008 0.26323 0.96000
v -0.06008 0.26323 0.96000
v -0.16834 0.21109 0.96000
v -0.24326 0.11715 0.96000
v -0.27000 0.00000 0.96000
v -0.24326 -0.11715 0.96000
v -0.16834 -0.21109 0.96000
v -0.06008 -0.26323 0.96000
v 0.06008 -0.26323 0.96000
v 0.16834 -0.21109 0.96000
v 0.24326 -0.11715 0.96000
usemtl plastic
f 14 13 12 11 10 9 8 7 6 5 4 3 2 1
f 15 16 17 18 19 20 21 22 23 24 25 26 27 28
f 1 2 16 15
f 2 3 17 16
f 3 4 18 17
f 4 5 19 18
f 5 6 20 19
f 6 7 21 20
f 7 8 22 21
f 8 9 23 22
f 9 10 24 23
f 10 11 25 24
f 11 12 26 25
f 12 13 27 26
f 13 14 28 27
f 14 1 15 28
usemtl painted_green
f 42 41 40 39 38 37 36 35 34 33 32 31 30 29
f 43 44 45 46 47 48 49 50 51 52 53 54 55 56
f 29 30 44 43
f 30 31 45 44
f 31 32 46 45
f 32 33 47 46
f 33 34 48 47
f 34 35 49 48
f 35 36 50 49
f 36 37 51 50
f 37 38 52 51
f 38 39 53 52
f 39 40 54 53
f 40 41 55 54
f 41 42 56 55
f 42 29 43 56
