# Generated by tools/generate_assets.py
mtllib ../materials.mtl
o pedestrian_railing
v -0.68500 0.00000 0.00000
v -0.69168 0.02057 0.00000
v -0.70918 0.03329 0.00000
v -0.73082 0.03329 0.00000
v -0.74832 0.02057 0.00000
v -0.75500 0.00000 0.00000
v -0.74832 -0.02057 0.00000
v -0.73082 -0.03329 0.00000
v -0.70918 -0.03329 0.00000
v -0.69168 -0.02057 0.00000
v -0.68500 0.00000 1.04000
v -0.69168 0.02057 1.04000
v -0.70918 0.03329 1.04000
v -0.73082 0.03329 1.04000
v -0.74832 0.02057 1.04000
v -0.75500 0.00000 1.04000
v -0.74832 -0.02057 1.04000
v -0.73082 -0.03329 1.04000
v -0.70918 -0.03329 1.04000
v -0.69168 -0.02057 1.04000
v 0.03500 0.00000 0.00000
v 0.02832 0.02057 0.00000
v 0.01082 0.03329 0.00000
v -0.01082 0.03329 0.00000
v -0.02832 0.02057 0.00000
v -0.03500 0.00000 0.00000
v -0.02832 -0.02057 0.00000
v -0.01082 -0.03329 0.00000
v 0.01082 -0.03329 0.00000
v 0.02832 -0.02057 0.00000
v 0.03500 0.00000 1.04000
v 0.02832 0.02057 1.04000
v 0.01082 0.03329 1.04000
v -0.01082 0.03329 1.04000
v -0.02832 0.02057 1.04000
v -0.03500 0.00000 1.04000
v -0.02832 -0.02057 1.04000
v -0.01082 -0.03329 1.04000
v 0.01082 -0.03329 1.04000
v 0.02832 -0.02057 1.04000
v 0.75500 0.00000 0.00000
v 0.74832 0.02057 0.00000
v 0.73082 0.03329 0.00000
v 0.70918 0.03329 0.00000
v 0.69168 0.02057 0.00000
v 0.68500 0.00000 0.00000
v 0.69168 -0.02057 0.00000
v 0.70918 -0.03329 0.00000
v 0.73082 -0.03329 0.00000
v 0.74832 -0.02057 0.00000
v 0.75500 0.00000 1.04000
v 0.74832 0.02057 1.04000
v 0.73082 0.03329 1.04000
v 0.70918 0.03329 1.04000
v 0.69168 0.02057 1.04000
v 0.68500 0.00000 1.04000
v 0.69168 -0.02057 1.04000
v 0.70918 -0.03329 1.04000
v 0.73082 -0.03329 1.04000
v 0.74832 -0.02057 1.04000
v -0.75000 -0.02250 0.69750
v 0.75000 -0.02250 0.69750
v 0.75000 0.02250 0.69750
v -0.75000 0.02250 0.69750
v -0.75000 -0.02250 0.74250
v 0.75000 -0.02250 0.74250
v 0.75000 0.02250 0.74250
v -0.75000 0.02250 0.74250
v -0.75000 -0.02250 0.29750
v 0.75000 -0.02250 0.29750
v 0.75000 0.02250 0.29750
v -0.75000 0.02250 0.29750
v -0.75000 -0.02250 0.34250
v 0.75000 -0.02250 0.34250
v 0.75000 0.02250 0.34250
v -0.75000 0.02250 0.34250
usemtl galvanized
f 10 9 8 7 6 5 4 3 2 1
f 11 12 13 14 15 16 17 18 19 20
f 1 2 12 11
f 2 3 13 12
f 3 4 14 13
f 4 5 15 14
f 5 6 16 15
f 6 7 17 16
f 7 8 18 17
f 8 9 19 18
f 9 10 20 19
f 10 1 11 20
f 30 29 28 27 26 25 24 23 22 21
f 31 32 33 34 35 36 37 38 39 40
f 21 22 32 31
f 22 23 33 32
f 23 24 34 33
f 24 25 35 34
f 25 26 36 35
f 26 27 37 36
f 27 28 38 37
f 28 29 39 38
f 29 30 40 39
f 30 21 31 40
f 50 49 48 47 46 45 44 43 42 41
f 51 52 53 54 55 56 57 58 59 60
f 41 42 52 51
f 42 43 53 52
f 43 44 54 53
f 44 45 55 54
f 45 46 56 55
f 46 47 57 56
f 47 48 58 57
f 48 49 59 58
f 49 50 60 59
f 50 41 51 60
f 61 64 63 62
f 65 66 67 68
f 61 62 66 65
f 62 63 67 66
f 63 64 68 67
f 64 61 65 68
f 69 72 71 70
f 73 74 75 76
f 69 70 74 73
f 70 71 75 74
f 71 72 76 75
f 72 69 73 76
