# Generated by tools/generate_assets.py
mtllib ../materials.mtl
o traffic_light
v 0.05500 0.00000 0.00000
v 0.04763 0.02750 0.00000
v 0.02750 0.04763 0.00000
v 0.00000 0.05500 0.00000
v -0.02750 0.04763 0.00000
v -0.04763 0.02750 0.00000
v -0.05500 0.00000 0.00000
v -0.04763 -0.02750 0.00000
v -0.02750 -0.04763 0.00000
v -0.00000 -0.05500 0.00000
v 0.02750 -0.04763 0.00000
v 0.04763 -0.02750 0.00000
v 0.05500 0.00000 3.20000
v 0.04763 0.02750 3.20000
v 0.02750 0.04763 3.20000
v 0.00000 0.05500 3.20000
v -0.02750 0.04763 3.20000
v -0.04763 0.02750 3.20000
v -0.05500 0.00000 3.20000
v -0.04763 -0.02750 3.20000
v -0.02750 -0.04763 3.20000
v -0.00000 -0.05500 3.20000
v 0.02750 -0.04763 3.20000
v 0.04763 -0.02750 3.20000
v 0.14000 0.00000 0.00000
v 0.12124 0.07000 0.00000
v 0.07000 0.12124 0.00000
v 0.00000 0.14000 0.00000
v -0.07000 0.12124 0.00000
v -0.12124 0.07000 0.00000
v -0.14000 0.00000 0.00000
v -0.12124 -0.07000 0.00000
v -0.07000 -0.12124 0.00000
v -0.00000 -0.14000 0.00000
v 0.07000 -0.12124 0.00000
v 0.12124 -0.07000 0.00000
v 0.14000 0.00000 0.16000
v 0.12124 0.07000 0.16000
v 0.07000 0.12124 0.16000
v 0.00000 0.14000 0.16000
v -0.07000 0.12124 0.16000
v -0.12124 0.07000 0.16000
v -0.14000 0.00000 0.16000
v -0.12124 -0.07000 0.16000
v -0.07000 -0.12124 0.16000
v -0.00000 -0.14000 0.16000
v 0.07000 -0.12124 0.16000
v 0.12124 -0.07000 0.16000
v -0.17000 -0.06000 2.17000
v 0.17000 -0.06000 2.17000
v 0.17000 0.22000 2.17000
v -0.17000 0.22000 2.17000
v -0.17000 -0.06000 3.07000
v 0.17000 -0.06000 3.07000
v 0.17000 0.22000 3.07000
v -0.17000 0.22000 3.07000
v 0.09500 0.23500 2.90250
v 0.08777 0.27135 2.90250
v 0.06718 0.30218 2.90250
v 0.03635 0.32277 2.90250
v 0.00000 0.33000 2.90250
v -0.03635 0.32277 2.90250
v -0.06718 0.30218 2.90250
v -0.08777 0.27135 2.90250
v -0.09500 0.23500 2.90250
v -0.08777 0.19865 2.90250
v -0.06718 0.16782 2.90250
v -0.03635 0.14723 2.90250
v -0.00000 0.14000 2.90250
v 0.03635 0.14723 2.90250
v 0.06718 0.16782 2.90250
v 0.08777 0.19865 2.90250
v 0.09500 0.23500 2.93750
v 0.08777 0.27135 2.93750
v 0.06718 0.30218 2.93750
v 0.03635 0.32277 2.93750
v 0.00000 0.33000 2.93750
v -0.03635 0.32277 2.93750
v -0.06718 0.30218 2.93750
v -0.08777 0.27135 2.93750
v -0.09500 0.23500 2.93750
v -0.08777 0.19865 2.93750
v -0.06718 0.16782 2.93750
v -0.03635 0.14723 2.93750
v -0.00000 0.14000 2.93750
v 0.03635 0.14723 2.93750
v 0.06718 0.16782 2.93750
v 0.08777 0.19865 2.93750
v 0.09500 0.23500 2.60250
v 0.08777 0.27135 2.60250
v 0.06718 0.30218 2.60250
v 0.03635 0.32277 2.60250
v 0.00000 0.33000 2.60250
v -0.03635 0.32277 2.60250
v -0.06718 0.30218 2.60250
v -0.08777 0.27135 2.60250
v -0.09500 0.23500 2.60250
v -0.08777 0.19865 2.60250
v -0.06718 0.16782 2.60250
v -0.03635 0.14723 2.60250
v -0.00000 0.14000 2.60250
v 0.03635 0.14723 2.60250
v 0.06718 0.16782 2.60250
v 0.08777 0.19865 2.60250
v 0.09500 0.23500 2.63750
v 0.08777 0.27135 2.63750
v 0.06718 0.30218 2.63750
v 0.03635 0.32277 2.63750
v 0.00000 0.33000 2.63750
v -0.03635 0.32277 2.63750
v -0.06718 0.30218 2.63750
v -0.08777 0.27135 2.63750
v -0.09500 0.23500 2.63750
v -0.08777 0.19865 2.63750
v -0.06718 0.16782 2.63750
v -0.03635 0.14723 2.63750
v -0.00000 0.14000 2.63750
v 0.03635 0.14723 2.63750
v 0.06718 0.16782 2.63750
v 0.08777 0.19865 2.63750
v 0.09500 0.23500 2.30250
v 0.08777 0.27135 2.30250
v 0.06718 0.30218 2.30250
v 0.03635 0.32277 2.30250
v 0.00000 0.33000 2.30250
v -0.03635 0.32277 2.30250
v -0.06718 0.30218 2.30250
v -0.08777 0.27135 2.30250
v -0.09500 0.23500 2.30250
v -0.08777 0.19865 2.30250
v -0.06718 0.16782 2.30250
v -0.03635 0.14723 2.30250
v -0.00000 0.14000 2.30250
v 0.03635 0.14723 2.30250
v 0.06718 0.16782 2.30250
v 0.08777 0.19865 2.30250
v 0.09500 0.23500 2.33750
v 0.08777 0.27135 2.33750
v 0.06718 0.30218 2.33750
v 0.03635 0.32277 2.33750
v 0.00000 0.33000 2.33750
v -0.03635 0.32277 2.33750
v -0.06718 0.30218 2.33750
v -0.08777 0.27135 2.33750
v -0.09500 0.23500 2.33750
v -0.08777 0.19865 2.33750
v -0.06718 0.16782 2.33750
v -0.03635 0.14723 2.33750
v -0.00000 0.14000 2.33750
v 0.03635 0.14723 2.33750
v 0.06718 0.16782 2.33750
v 0.08777 0.19865 2.33750
usemtl painted_green
f 12 11 10 9 8 7 6 5 4 3 2 1
f 13 14 15 16 17 18 19 20 21 22 23 24
f 1 2 14 13
f 2 3 15 14
f 3 4 16 15
f 4 5 17 16
f 5 6 18 17
f 6 7 19 18
f 7 8 20 19
f 8 9 21 20
f 9 10 22 21
f 10 11 23 22
f 11 12 24 23
f 12 1 13 24
f 36 35 34 33 32 31 30 29 28 27 26 25
f 37 38 39 40 41 42 43 44 45 46 47 48
f 25 26 38 37
f 26 27 39 38
f 27 28 40 39
f 28 29 41 40
f 29 30 42 41
f 30 31 43 42
f 31 32 44 43
f 32 33 45 44
f 33 34 46 45
f 34 35 47 46
f 35 36 48 47
f 36 25 37 48
usemtl painted_black
f 49 52 51 50
f 53 54 55 56
f 49 50 54 53
f 50 51 55 54
f 51 52 56 55
f 52 49 53 56
usemtl red
f 72 71 70 69 68 67 66 65 64 63 62 61 60 59 58 57
f 73 74 75 76 77 78 79 80 81 82 83 84 85 86 87 88
f 57 58 74 73
f 58 59 75 74
f 59 60 76 75
f 60 61 77 76
f 61 62 78 77
f 62 63 79 78
f 63 64 80 79
f 64 65 81 80
f 65 66 82 81
f 66 67 83 82
f 67 68 84 83
f 68 69 85 84
f 69 70 86 85
f 70 71 87 86
f 71 72 88 87
f 72 57 73 88
usemtl amber
f 104 103 102 101 100 99 98 97 96 95 94 93 92 91 90 89
f 105 106 107 108 109 110 111 112 113 114 115 116 117 118 119 120
f 89 90 106 105
f 90 91 107 106
f 91 92 108 107
f 92 93 109 108
f 93 94 110 109
f 94 95 111 110
f 95 96 112 111
f 96 97 113 112
f 97 98 114 113
f 98 99 115 114
f 99 100 116 115
f 100 101 117 116
f 101 102 118 117
f 102 103 119 118
f 103 104 120 119
f 104 89 105 120
usemtl signal_green
f 136 135 134 133 132 131 130 129 128 127 126 125 124 123 122 121
f 137 138 139 140 141 142 143 144 145 146 147 148 149 150 151 152
f 121 122 138 137
f 122 123 139 138
f 123 124 140 139
f 124 125 141 140
f 125 126 142 141
f 126 127 143 142
f 127 128 144 143
f 128 129 145 144
f 129 130 146 145
f 130 131 147 146
f 131 132 148 147
f 132 133 149 148
f 133 134 150 149
f 134 135 151 150
f 135 136 152 151
f 136 121 137 152
